<?xml version="1.0"?>
<svg xmlns="http://www.w3.org/2000/svg" xmlns:xlink="http://www.w3.org/1999/xlink" data-noselect="" viewBox="160 60 640 470" width="1600" height="1200" preserveAspectRatio="xMidYMid meet" version="1.1" class="svg-canvas"><defs/> <g id="shape_77YvjjyXks" transform="translate(245.03019801456,173.08369720822) rotate(0,163.45582395183,126.69472037039) scale(1,1)" filter="" style="opacity: 1;"><g><svg xmlns="http://www.w3.org/2000/svg" xmlns:xlink="http://www.w3.org/1999/xlink" version="1.1" id="mJ5IFLcjvz" x="0px" y="0px" width="326.91164790366" height="253.38944074077" viewBox="0 0 144.02 111.63" style="enable-background:new 0 0 144.02 111.63;" xml:space="preserve" class="style-removed" preserveAspectRatio="none" data-parent="shape_77YvjjyXks">

<g>
	<path d="M72.39,81.06h28.56c-2.59,1.95-5.29,3.87-8.06,5.75c-38.06,25.63-78.25,32.55-89.78,15.44   c-3.72-5.54-4-12.89-1.38-21.19h4.6c0.12,2.83,0.88,5.36,2.32,7.51C16.73,100.57,43.8,96.9,72.39,81.06z" fill="#1B2B62" stroke-width="0"/>
	<path d="M140.61,35.12h-16.86c6.46-10.75,8.26-20.4,3.97-26.76c-4.25-6.3-13.72-8.28-25.9-6.46   c18.18-4,32.85-1.78,39.1,7.49C145.3,15.91,144.9,24.97,140.61,35.12z" fill="#1B2B62" stroke-width="0"/>
	<path d="M29.64,90.54c-7.87,0.69-13.79-1.11-16.57-5.31c-0.8-1.25-1.32-2.62-1.55-4.18h6.07   c0,1.9,0.52,3.52,1.61,4.83C22.17,89.41,25.41,90.67,29.64,90.54z" fill="#8ABC19" stroke-width="0"/>
	<path d="M118.83,34.37c3.56-7.01,3.89-12.97,1.34-16.8c-6.3-9.52-34.02-1.95-61.89,16.9   c-0.31,0.21-0.63,0.42-0.94,0.65H43.91c3.29-2.59,6.78-5.15,10.44-7.62c30.34-20.52,61.01-27.93,68.52-16.57   C126.28,16.1,124.65,24.8,118.83,34.37z" fill="#8ABC19" stroke-width="0"/>
</g>
</svg></g></g><g id="shape_uGvBSskjSp" transform="translate(200.79290881592,214.61170462300996) rotate(0,220.14947310529,120.40900000000002) scale(1,1)" filter="" style="opacity: 1;"><g><svg xmlns="http://www.w3.org/2000/svg" xmlns:xlink="http://www.w3.org/1999/xlink" version="1.1" width="506.91894621058003" height="240.81800000000004" viewBox="0 0 506.91894621058003 240.81800000000004"><g data-width="343.4927200000001" transform="translate(48.403113105289975, 0)"><path d="M10.13-21.55L9.76-7.10L9.83-4.13Q9.83-2.03 9.13-0.60Q8.43 0.83 6.81 1.87Q5.20 2.90 2.33 3.73L2.33 3.73L0.60 0.30L0.60-0.23Q2.30-1.07 2.98-1.97Q3.66-2.86 3.66-4.33L3.66-4.33L3.66-6.43L3.43-16.85L0.60-16.75L0.23-17.19L0.50-21.55L10.13-21.55Z" transform="translate(0 129.90900000000002) " fill="rgb(27, 43, 98)" stroke="rgb(27, 43, 98)" stroke-width="0.056" data-glyph-w="12.058220000000002" data-glyph-h="39.97200000000001" data-glyph-ascender="29.979000000000006" data-glyph-descender="-9.993000000000002"/><path d="M8.79-21.55L8.43-7.00L8.69 0L2.00 0L2.33-6.33L2.00-21.55L8.79-21.55Z" transform="translate(12.058220000000002 129.90900000000002) " fill="rgb(27, 43, 98)" stroke="rgb(27, 43, 98)" stroke-width="0.056" data-glyph-w="10.892370000000001" data-glyph-h="39.97200000000001" data-glyph-ascender="29.979000000000006" data-glyph-descender="-9.993000000000002"/><path d="M24.42 2.00L24.68 2.60Q23.38 5.16 21.48 6.83L21.48 6.83L21.02 7.06Q15.29 4.16 10.93 0.40L10.93 0.40L10.39 0.40Q5.70 0.40 3.13-2.41Q0.57-5.23 0.57-10.39L0.57-10.39Q0.57-15.92 3.38-18.94Q6.20-21.95 11.36-21.95L11.36-21.95Q16.06-21.95 18.62-19.17Q21.19-16.39 21.19-11.33L21.19-11.33Q21.19-7.83 20.05-5.28Q18.92-2.73 16.75-1.30L16.75-1.30Q20.65 0.73 24.42 2.00L24.42 2.00ZM7.56-11.29Q7.56-8.53 7.86-7.10Q8.16-5.66 8.88-5.10Q9.59-4.53 10.99-4.53L10.99-4.53Q12.29-4.53 12.96-4.98Q13.62-5.43 13.91-6.58Q14.19-7.73 14.19-9.89L14.19-9.89Q14.19-12.62 13.89-14.06Q13.59-15.49 12.87-16.06Q12.16-16.62 10.76-16.62L10.76-16.62Q9.46-16.62 8.79-16.17Q8.13-15.72 7.84-14.59Q7.56-13.46 7.56-11.29L7.56-11.29Z" transform="translate(22.950590000000005 129.90900000000002) " fill="rgb(27, 43, 98)" stroke="rgb(27, 43, 98)" stroke-width="0.056" data-glyph-w="22.017910000000004" data-glyph-h="39.97200000000001" data-glyph-ascender="29.979000000000006" data-glyph-descender="-9.993000000000002"/><path d="M8.79-21.55L8.43-7.00L8.69 0L2.00 0L2.33-6.33L2.00-21.55L8.79-21.55Z" transform="translate(44.968500000000006 129.90900000000002) " fill="rgb(27, 43, 98)" stroke="rgb(27, 43, 98)" stroke-width="0.056" data-glyph-w="10.892370000000001" data-glyph-h="39.97200000000001" data-glyph-ascender="29.979000000000006" data-glyph-descender="-9.993000000000002"/><path d="M21.65-21.68L21.29-7.03L21.55 0L14.29 0L8.23-11.53L7.83-11.53L7.79-7.79L8.06 0L2.00 0L2.33-6.33L2.00-21.55L9.26-21.55L15.32-10.03L15.72-10.03L15.52-21.32L21.65-21.68Z" transform="translate(55.860870000000006 129.90900000000002) " fill="rgb(27, 43, 98)" stroke="rgb(27, 43, 98)" stroke-width="0.056" data-glyph-w="23.650100000000005" data-glyph-h="39.97200000000001" data-glyph-ascender="29.979000000000006" data-glyph-descender="-9.993000000000002"/><path d="M12.72-21.92Q16.32-21.92 18.95-20.92L18.95-20.92L17.52-15.02L16.99-15.02Q15.32-15.86 14.11-16.22Q12.89-16.59 11.46-16.59L11.46-16.59Q9.93-16.59 9.11-16.09Q8.29-15.59 7.93-14.32Q7.56-13.06 7.56-10.66L7.56-10.66Q7.56-8.23 7.93-6.95Q8.29-5.66 9.18-5.15Q10.06-4.63 11.73-4.63L11.73-4.63Q12.19-4.63 12.92-4.76L12.92-4.76L12.92-5.83L12.82-9.46L18.92-9.89L18.82-6.96L18.82-1.07Q14.96 0.40 11.13 0.40L11.13 0.40Q5.90 0.40 3.23-2.38Q0.57-5.16 0.57-10.33L0.57-10.33Q0.57-15.99 3.71-18.95Q6.86-21.92 12.72-21.92L12.72-21.92Z" transform="translate(79.51097000000001 129.90900000000002) " fill="rgb(27, 43, 98)" stroke="rgb(27, 43, 98)" stroke-width="0.056" data-glyph-w="19.852760000000004" data-glyph-h="39.97200000000001" data-glyph-ascender="29.979000000000006" data-glyph-descender="-9.993000000000002"/><path d="" transform="translate(99.36373000000002 129.90900000000002) " fill="rgb(27, 43, 98)" stroke="rgb(27, 43, 98)" stroke-width="0.056" data-glyph-w="13.257380000000003" data-glyph-h="33.31000000000001" data-glyph-ascender="29.312800000000006" data-glyph-descender="-3.9972000000000008"/><path d="M11.73-21.92Q14.59-21.92 17.12-21.02L17.12-21.02L15.99-15.72L15.56-15.46Q14.69-15.92 13.56-16.21Q12.42-16.49 11.46-16.49L11.46-16.49Q9.43-16.49 8.53-15.31Q7.63-14.12 7.63-11.36L7.63-11.36Q7.63-8.13 8.66-6.65Q9.69-5.16 11.89-5.16L11.89-5.16Q12.82-5.16 13.97-5.35Q15.12-5.53 15.99-5.86L15.99-5.86L16.52-5.53L15.99-0.27Q13.99 0.37 11.36 0.37L11.36 0.37Q6.00 0.37 3.28-2.43Q0.57-5.23 0.57-10.59L0.57-10.59Q0.57-15.99 3.48-18.95Q6.40-21.92 11.73-21.92L11.73-21.92Z" transform="translate(112.62111000000002 129.90900000000002) " fill="rgb(27, 43, 98)" stroke="rgb(27, 43, 98)" stroke-width="0.056" data-glyph-w="17.121340000000004" data-glyph-h="39.97200000000001" data-glyph-ascender="29.979000000000006" data-glyph-descender="-9.993000000000002"/><path d="M11.36-21.95Q16.06-21.95 18.62-19.17Q21.19-16.39 21.19-11.33L21.19-11.33Q21.19-5.73 18.37-2.66Q15.56 0.40 10.39 0.40L10.39 0.40Q5.70 0.40 3.13-2.41Q0.57-5.23 0.57-10.39L0.57-10.39Q0.57-15.92 3.38-18.94Q6.20-21.95 11.36-21.95L11.36-21.95ZM10.76-16.62Q9.46-16.62 8.79-16.17Q8.13-15.72 7.84-14.59Q7.56-13.46 7.56-11.29L7.56-11.29Q7.56-8.53 7.86-7.10Q8.16-5.66 8.88-5.10Q9.59-4.53 10.99-4.53L10.99-4.53Q12.29-4.53 12.96-4.98Q13.62-5.43 13.91-6.58Q14.19-7.73 14.19-9.89L14.19-9.89Q14.19-12.62 13.89-14.06Q13.59-15.49 12.87-16.06Q12.16-16.62 10.76-16.62L10.76-16.62Z" transform="translate(129.74245000000002 129.90900000000002) " fill="rgb(27, 43, 98)" stroke="rgb(27, 43, 98)" stroke-width="0.056" data-glyph-w="21.751430000000003" data-glyph-h="39.97200000000001" data-glyph-ascender="29.979000000000006" data-glyph-descender="-9.993000000000002"/><path d="M21.65-21.68L21.29-7.03L21.55 0L14.29 0L8.23-11.53L7.83-11.53L7.79-7.79L8.06 0L2.00 0L2.33-6.33L2.00-21.55L9.26-21.55L15.32-10.03L15.72-10.03L15.52-21.32L21.65-21.68Z" transform="translate(151.49388000000002 129.90900000000002) " fill="rgb(27, 43, 98)" stroke="rgb(27, 43, 98)" stroke-width="0.056" data-glyph-w="23.650100000000005" data-glyph-h="39.97200000000001" data-glyph-ascender="29.979000000000006" data-glyph-descender="-9.993000000000002"/><path d="M10.16-21.95Q13.32-21.95 16.42-20.79L16.42-20.79L15.36-15.36L14.42-14.96Q13.02-15.82 11.66-16.32Q10.29-16.82 9.46-16.82L9.46-16.82Q8.69-16.82 8.24-16.52Q7.79-16.22 7.79-15.72L7.79-15.72Q7.79-15.09 8.48-14.64Q9.16-14.19 10.76-13.46L10.76-13.46Q12.62-12.62 13.82-11.91Q15.02-11.19 15.92-9.94Q16.82-8.69 16.82-6.86L16.82-6.86Q16.82-4.83 15.71-3.18Q14.59-1.53 12.52-0.57Q10.46 0.40 7.73 0.40L7.73 0.40Q4.33 0.40 0.60-0.87L0.60-0.87L1.57-6.66L2.23-7.06Q3.76-5.90 5.51-5.21Q7.26-4.53 8.43-4.53L8.43-4.53Q9.36-4.53 9.78-4.85Q10.19-5.16 10.19-5.63L10.19-5.63Q10.19-6.33 9.48-6.81Q8.76-7.29 7.16-7.99L7.16-7.99Q5.33-8.79 4.15-9.51Q2.96-10.23 2.10-11.48Q1.23-12.72 1.23-14.56L1.23-14.56Q1.23-16.66 2.37-18.34Q3.50-20.02 5.53-20.99Q7.56-21.95 10.16-21.95L10.16-21.95Z" transform="translate(175.14398000000003 129.90900000000002) " fill="rgb(27, 43, 98)" stroke="rgb(27, 43, 98)" stroke-width="0.056" data-glyph-w="17.587680000000002" data-glyph-h="39.97200000000001" data-glyph-ascender="29.979000000000006" data-glyph-descender="-9.993000000000002"/><path d="M16.72-21.55L17.09-21.09L16.72-16.22L12.32-16.42L11.92-16.42L11.76-7.00L12.02 0L5.36 0L5.70-6.33L5.53-16.42L5.10-16.42L0.67-16.22L0.27-16.69L0.63-21.55L16.72-21.55Z" transform="translate(192.73166000000003 129.90900000000002) " fill="rgb(27, 43, 98)" stroke="rgb(27, 43, 98)" stroke-width="0.056" data-glyph-w="17.287890000000004" data-glyph-h="39.97200000000001" data-glyph-ascender="29.979000000000006" data-glyph-descender="-9.993000000000002"/><path d="M16.19-8.49Q18.59-4.76 20.99-1.57L20.99-1.57L20.89-0.83Q17.49 0.20 14.19 0.40L14.19 0.40L13.56-0.13L13.16-0.97Q12.89-1.50 12.09-3.21Q11.29-4.93 10.69-6.43L10.69-6.43L8.46-6.43L8.69 0L2.00 0L2.33-6.33L2.00-21.55L12.22-21.58Q15.86-21.58 17.82-19.87Q19.79-18.15 19.79-14.92L19.79-14.92Q19.79-13.02 18.84-11.36Q17.89-9.69 16.19-8.49L16.19-8.49ZM12.76-14.26Q12.76-15.59 12.07-16.24Q11.39-16.89 9.86-16.95L9.86-16.95L8.66-16.85L8.53-11.29L10.96-11.16Q11.89-11.59 12.32-12.32Q12.76-13.06 12.76-14.26L12.76-14.26Z" transform="translate(210.01955000000004 129.90900000000002) " fill="rgb(27, 43, 98)" stroke="rgb(27, 43, 98)" stroke-width="0.056" data-glyph-w="21.018610000000002" data-glyph-h="39.97200000000001" data-glyph-ascender="29.979000000000006" data-glyph-descender="-9.993000000000002"/><path d="M20.22-21.55L19.99-10.63L19.95-7.19Q19.92-3.53 17.49-1.57Q15.06 0.40 10.53 0.40L10.53 0.40Q6.16 0.40 3.85-1.57Q1.53-3.53 1.63-7.19L1.63-7.19L1.73-10.63L1.53-21.55L8.23-21.55L7.93-8.09Q7.89-6.40 8.58-5.63Q9.26-4.86 10.79-4.86L10.79-4.86Q12.36-4.86 13.06-5.63Q13.76-6.40 13.72-8.09L13.72-8.09L13.42-21.55L20.22-21.55Z" transform="translate(231.03816000000003 129.90900000000002) " fill="rgb(27, 43, 98)" stroke="rgb(27, 43, 98)" stroke-width="0.056" data-glyph-w="21.751430000000003" data-glyph-h="39.97200000000001" data-glyph-ascender="29.979000000000006" data-glyph-descender="-9.993000000000002"/><path d="M11.73-21.92Q14.59-21.92 17.12-21.02L17.12-21.02L15.99-15.72L15.56-15.46Q14.69-15.92 13.56-16.21Q12.42-16.49 11.46-16.49L11.46-16.49Q9.43-16.49 8.53-15.31Q7.63-14.12 7.63-11.36L7.63-11.36Q7.63-8.13 8.66-6.65Q9.69-5.16 11.89-5.16L11.89-5.16Q12.82-5.16 13.97-5.35Q15.12-5.53 15.99-5.86L15.99-5.86L16.52-5.53L15.99-0.27Q13.99 0.37 11.36 0.37L11.36 0.37Q6.00 0.37 3.28-2.43Q0.57-5.23 0.57-10.59L0.57-10.59Q0.57-15.99 3.48-18.95Q6.40-21.92 11.73-21.92L11.73-21.92Z" transform="translate(252.78959000000003 129.90900000000002) " fill="rgb(27, 43, 98)" stroke="rgb(27, 43, 98)" stroke-width="0.056" data-glyph-w="17.121340000000004" data-glyph-h="39.97200000000001" data-glyph-ascender="29.979000000000006" data-glyph-descender="-9.993000000000002"/><path d="M16.72-21.55L17.09-21.09L16.72-16.22L12.32-16.42L11.92-16.42L11.76-7.00L12.02 0L5.36 0L5.70-6.33L5.53-16.42L5.10-16.42L0.67-16.22L0.27-16.69L0.63-21.55L16.72-21.55Z" transform="translate(269.91093 129.90900000000002) " fill="rgb(27, 43, 98)" stroke="rgb(27, 43, 98)" stroke-width="0.056" data-glyph-w="17.287890000000004" data-glyph-h="39.97200000000001" data-glyph-ascender="29.979000000000006" data-glyph-descender="-9.993000000000002"/><path d="M8.79-21.55L8.43-7.00L8.69 0L2.00 0L2.33-6.33L2.00-21.55L8.79-21.55Z" transform="translate(287.19882 129.90900000000002) " fill="rgb(27, 43, 98)" stroke="rgb(27, 43, 98)" stroke-width="0.056" data-glyph-w="10.892370000000001" data-glyph-h="39.97200000000001" data-glyph-ascender="29.979000000000006" data-glyph-descender="-9.993000000000002"/><path d="M11.36-21.95Q16.06-21.95 18.62-19.17Q21.19-16.39 21.19-11.33L21.19-11.33Q21.19-5.73 18.37-2.66Q15.56 0.40 10.39 0.40L10.39 0.40Q5.70 0.40 3.13-2.41Q0.57-5.23 0.57-10.39L0.57-10.39Q0.57-15.92 3.38-18.94Q6.20-21.95 11.36-21.95L11.36-21.95ZM10.76-16.62Q9.46-16.62 8.79-16.17Q8.13-15.72 7.84-14.59Q7.56-13.46 7.56-11.29L7.56-11.29Q7.56-8.53 7.86-7.10Q8.16-5.66 8.88-5.10Q9.59-4.53 10.99-4.53L10.99-4.53Q12.29-4.53 12.96-4.98Q13.62-5.43 13.91-6.58Q14.19-7.73 14.19-9.89L14.19-9.89Q14.19-12.62 13.89-14.06Q13.59-15.49 12.87-16.06Q12.16-16.62 10.76-16.62L10.76-16.62Z" transform="translate(298.09119000000004 129.90900000000002) " fill="rgb(27, 43, 98)" stroke="rgb(27, 43, 98)" stroke-width="0.056" data-glyph-w="21.751430000000003" data-glyph-h="39.97200000000001" data-glyph-ascender="29.979000000000006" data-glyph-descender="-9.993000000000002"/><path d="M21.65-21.68L21.29-7.03L21.55 0L14.29 0L8.23-11.53L7.83-11.53L7.79-7.79L8.06 0L2.00 0L2.33-6.33L2.00-21.55L9.26-21.55L15.32-10.03L15.72-10.03L15.52-21.32L21.65-21.68Z" transform="translate(319.84262000000007 129.90900000000002) " fill="rgb(27, 43, 98)" stroke="rgb(27, 43, 98)" stroke-width="0.056" data-glyph-w="23.650100000000005" data-glyph-h="39.97200000000001" data-glyph-ascender="29.979000000000006" data-glyph-descender="-9.993000000000002"/></g></svg></g></g><g id="shape_jBIFBYVmaj" transform="translate(183.69311885045,78.02070462300998) rotate(0,237.249263070755,216) scale(1,1)" filter="" style="opacity: 1;"><g><svg xmlns="http://www.w3.org/2000/svg" xmlns:xlink="http://www.w3.org/1999/xlink" version="1.1" width="594.49852614151" height="432" viewBox="0 0 594.49852614151 432"><g data-width="331.2" transform="translate(71.64926307075501, 0)"><path d="M15.90-5.82L30.24-5.82L30.24-37.38L17.28-37.38L17.28-43.32L52.50-43.32L52.50-37.38L38.58-37.38L38.58-5.82L53.94-5.82L53.94 0.12L15.90 0.12L15.90-5.82ZM9.60 0.12L1.26 0.12L6.84-17.10L15.18-17.10L9.60 0.12ZM6.84-19.92L1.26-33.48L5.40-33.48L1.26-43.38L9.60-43.38L15.18-29.88L11.04-29.88L15.18-19.92L6.84-19.92Z" transform="translate(0 237) " fill="rgb(27, 43, 98)" stroke="rgb(27, 43, 98)" stroke-width="0.1" data-glyph-w="55.199999999999996" data-glyph-h="60" data-glyph-ascender="51.54" data-glyph-descender="-8.459999999999999"/><path d="M3.36-21.12L10.02-21.12L8.04-3.78L1.38-3.78L3.36-21.12ZM52.02-21.12L53.94-3.78L47.34-3.78L45.36-21.12L52.02-21.12ZM53.94-41.34L53.94-36.54L44.34-36.54L43.56-34.80L34.92-34.80L35.70-36.54L19.44-36.54L20.22-34.80L11.58-34.80L10.80-36.54L1.20-36.54L1.20-41.34L8.70-41.34L7.86-43.26L16.50-43.26L17.34-41.34L37.80-41.34L38.64-43.26L47.28-43.26L46.44-41.34L53.94-41.34ZM37.08-23.64L23.70-23.64L16.98 0L9 0L15.72-23.64L3.84-23.64L3.84-29.58L17.40-29.58L18.30-32.58L26.28-32.58L25.44-29.58L44.76-29.58L44.76-6.60Q44.76-5.22 44.22-4.02Q43.68-2.82 42.78-1.92Q41.88-1.02 40.68-0.51Q39.48 0 38.16 0L38.16 0L27.72 0L30.12-5.94L35.16-5.94Q36-5.94 36.54-6.48Q37.08-7.02 37.08-7.80L37.08-7.80L37.08-23.64Z" transform="translate(55.199999999999996 237) " fill="rgb(27, 43, 98)" stroke="rgb(27, 43, 98)" stroke-width="0.1" data-glyph-w="55.199999999999996" data-glyph-h="60" data-glyph-ascender="51.54" data-glyph-descender="-8.459999999999999"/><path d="M8.34-43.20L18.42-43.20L12.72-37.02L14.16-37.02L14.16-16.92L5.88-16.92L5.88-35.52L1.26-35.52L8.34-43.20ZM39-43.20L39.90-40.32L53.94-40.32L53.94-36L39.96-36L39.96-33.90L53.94-33.90L53.94-29.64L39.96-29.64L39.96-27.54L53.94-27.54L53.94-23.28L39.96-23.28L39.96-21.18L53.94-21.18L53.94-16.92L17.58-16.92L17.58-21.18L31.62-21.18L31.62-23.28L17.58-23.28L17.58-27.54L31.62-27.54L31.62-29.64L17.58-29.64L17.58-33.90L31.62-33.90L31.62-36L17.58-36L17.58-40.32L31.56-40.32L30.72-43.20L39-43.20ZM31.80-15.12L31.80-13.56L53.94-13.56L53.94-8.34L45.60-8.34L53.94 0L43.56 0L35.52-8.34L31.80-8.34L31.80 0L23.46 0L23.46-8.34L19.68-8.34L11.64 0L1.26 0L9.66-8.34L1.26-8.34L1.26-13.56L23.46-13.56L23.46-15.12L31.80-15.12Z" transform="translate(110.39999999999999 237) " fill="rgb(27, 43, 98)" stroke="rgb(27, 43, 98)" stroke-width="0.1" data-glyph-w="55.199999999999996" data-glyph-h="60" data-glyph-ascender="51.54" data-glyph-descender="-8.459999999999999"/><path d="M22.44 0L12.96 0L27.30-22.14L14.10-22.14L14.10-28.08L29.34-28.08L29.34-33.60L37.80-33.60L37.80-28.08L53.04-28.08L53.04-22.14L36.72-22.14L34.44-18.66L40.50-18.66L54.18 0L44.16 0L32.82-16.08L22.44 0ZM12.24-6.42L9.36 0.12L1.02 0.12L3.96-6.42L3.96-41.28L25.68-41.28L24.72-43.38L34.56-43.38L35.52-41.28L54.18-41.28L54.18-35.34L12.24-35.34L12.24-6.42Z" transform="translate(165.6 237) " fill="rgb(27, 43, 98)" stroke="rgb(27, 43, 98)" stroke-width="0.1" data-glyph-w="55.199999999999996" data-glyph-h="60" data-glyph-ascender="51.54" data-glyph-descender="-8.459999999999999"/><path d="M48.06-22.08L38.64-22.08L38.64-19.26L52.56-19.26L52.56-14.64L38.64-14.64L38.64-12.30L53.22-12.30L53.22-7.74L38.64-7.74L38.64-5.76L31.14-5.76L31.14-7.74L17.22-7.74L17.22-12.30L31.14-12.30L31.14-14.64L17.88-14.64L17.88-19.26L31.14-19.26L31.14-22.08L18.36-22.08L18.36-26.70L31.14-26.70L31.14-30L17.04-30L17.04-34.56L31.14-34.56L31.14-37.20L18.36-37.20L18.36-41.76L31.14-41.76L31.14-43.32L38.64-43.32L38.64-41.76L45.90-41.76L49.32-41.76L52.74-41.76L52.74-34.56L53.94-34.56L53.94-30L52.74-30L52.74-26.82Q52.74-24.84 51.36-23.46Q49.98-22.08 48.06-22.08L48.06-22.08ZM38.64-37.20L38.64-34.56L45.90-34.56L45.90-37.20L38.64-37.20ZM38.64-30L38.64-26.70L44.94-26.70Q45.90-26.70 45.90-27.66L45.90-27.66L45.90-30L38.64-30ZM1.92-21.18L7.50-37.08L1.26-37.08L1.26-42.36L16.50-42.36L11.10-26.46L15.96-26.46L16.62-26.46L12.18-11.04L17.10-4.38L53.94-4.38L53.94 0.06L12.84 0.06L10.08-3.72L9 0.06L1.98 0.06L7.98-21.18L1.92-21.18Z" transform="translate(220.79999999999998 237) " fill="rgb(27, 43, 98)" stroke="rgb(27, 43, 98)" stroke-width="0.1" data-glyph-w="55.199999999999996" data-glyph-h="60" data-glyph-ascender="51.54" data-glyph-descender="-8.459999999999999"/><path d="M5.64-33.66L1.26-43.38L11.04-43.38L15.42-33.66L5.64-33.66ZM1.20-24.24L1.20-30.18L4.74-30.18L12.90-30.18L13.08-30.18L13.08-6.96Q13.08-6.12 13.62-5.58Q14.16-5.04 14.94-5.04L14.94-5.04L18.48-5.04L16.14 0.12L11.34 0.12Q9.96 0.12 8.76-0.39Q7.56-0.90 6.66-1.80Q5.76-2.70 5.25-3.90Q4.74-5.10 4.74-6.48L4.74-6.48L4.74-24.24L1.20-24.24ZM53.88-19.38L53.82-19.38Q51.84-16.32 49.17-13.92Q46.50-11.52 43.38-9.54L43.38-9.54Q45.84-8.52 48.42-7.62Q51-6.72 53.88-5.76L53.88-5.76L53.88 0.12Q49.62-1.08 45.24-2.55Q40.86-4.02 36.72-5.94L36.72-5.94Q32.58-4.02 28.23-2.55Q23.88-1.08 19.62 0.12L19.62 0.12L19.62-5.76Q22.50-6.72 25.05-7.62Q27.60-8.52 30.06-9.54L30.06-9.54Q27.36-11.28 25.02-13.29Q22.68-15.30 20.82-17.76L20.82-17.76L29.46-17.76Q31.20-16.20 33-14.97Q34.80-13.74 36.72-12.72L36.72-12.72Q39.06-14.04 41.31-15.66Q43.56-17.28 45.72-19.38L45.72-19.38L19.62-19.38L19.62-24.48L53.88-24.48L53.88-21.24L53.88-19.38ZM52.56-30.54L53.94-30.54L51.66-26.04L50.16-26.04Q48.78-26.04 47.58-26.55Q46.38-27.06 45.48-27.96Q44.58-28.86 44.07-30.06Q43.56-31.26 43.56-32.64L43.56-32.64L43.56-38.34L28.62-38.34L28.62-29.76L26.76-25.80L19.62-25.80L21.48-29.76L21.48-43.38L28.62-43.38L50.70-43.38L50.70-41.58L50.70-32.40Q50.70-31.62 51.24-31.08Q51.78-30.54 52.56-30.54L52.56-30.54Z" transform="translate(276 237) " fill="rgb(27, 43, 98)" stroke="rgb(27, 43, 98)" stroke-width="0.1" data-glyph-w="55.199999999999996" data-glyph-h="60" data-glyph-ascender="51.54" data-glyph-descender="-8.459999999999999"/></g></svg></g></g></svg>
